<svg xmlns="http://www.w3.org/2000/svg" version="1.1" xmlns:xlink="http://www.w3.org/1999/xlink" xmlns:svgjs="http://svgjs.dev/svgjs" width="100%" height="100%" viewBox="0 0 1000 600"><rect width="1000" height="600" x="0" y="0" fill="#00214d"/><g><circle r="166.66666666666666" cx="433.1281534830729" cy="455.3504046313154" fill="#ec449b" transform="matrix(0.4691109454257675,0,0,0.46911094542576737,0,86.39014689810033)"/><path d="M365.8692466143739 530.3504336916889L334.5272632849853 530.3504336916889Q324.0121585906028 530.3504336916889 318.55127548965277 527.7071338928248Q313.09039238870275 525.0347868434237 311.2023211037998 519.0220059822713Q309.3142498188969 512.9801778705819 309.3142498188969 502.98792368586487L309.3142498188969 502.98792368586487L309.3142498188969 411.28575374065645Q309.3142498188969 401.0611215516437 311.2023211037998 395.1064351915652Q313.09039238870275 389.12270158094975 318.55127548965277 386.5084490326226Q324.0121585906028 383.92324373483245 334.5272632849853 383.92324373483245L334.5272632849853 383.92324373483245L365.8692466143739 383.92324373483245Q387.8289680203218 383.92324373483245 404.3278063253197 390.4588751056503Q420.8266446303176 396.99450647646813 430.0055757999995 412.56383276428306Q439.1845069696815 428.133159052098 439.1845069696815 455.2923383041632L439.1845069696815 455.2923383041632Q439.1845069696815 482.4515175562284 430.0055757999995 498.9503558612263Q420.8266446303176 515.4491941662242 404.3278063253197 522.8852903036881Q387.8289680203218 530.3504336916889 365.8692466143739 530.3504336916889L365.8692466143739 530.3504336916889ZM358.43315047691004 410.762903230991L353.93082664368 410.762903230991Q347.1918645191034 410.762903230991 344.7228482234611 413.6385810341509Q342.28287917835576 416.48521158677374 342.28287917835576 423.4275044651091L342.28287917835576 423.4275044651091L342.28287917835576 490.81712571087525Q342.28287917835576 497.6722768375997 344.7228482234611 500.63509639237043Q347.1918645191034 503.5979159471412 353.93082664368 503.5979159471412L353.93082664368 503.5979159471412L358.6364812306688 503.5979159471412Q380.48001363446883 503.5979159471412 392.4765281062367 492.87948049899995Q404.47304257800454 482.1610450508587 404.47304257800454 455.6989998116808L404.47304257800454 455.6989998116808Q404.47304257800454 438.0382714852041 399.0121594770545 428.2783953047828Q393.5512763761045 418.51851912436155 383.23950243548086 414.6552348029448Q372.92772849485715 410.762903230991 358.43315047691004 410.762903230991L358.43315047691004 410.762903230991ZM540.7046475963851 530.3504336916889L489.95910090830176 530.3504336916889Q479.4439962139193 530.3504336916889 473.95406586243234 527.7071338928248Q468.49318276148233 525.0347868434237 466.6051114765794 519.0220059822713Q464.71704019167646 512.9801778705819 464.71704019167646 502.98792368586487L464.71704019167646 502.98792368586487L464.71704019167646 400.24779853660857Q464.71704019167646 397.2849789818378 465.73369396047036 395.7454747033785L465.73369396047036 395.7454747033785Q470.35220679584825 389.0065125788019 478.60162594834725 381.57041644133807L478.60162594834725 381.57041644133807Q480.1411302268066 380.3504319187854 481.2739729977483 380.3504319187854L481.2739729977483 380.3504319187854Q482.49395752030097 380.3504319187854 483.8301310450015 381.57041644133807L483.8301310450015 381.57041644133807Q488.3034076276946 385.4337007627548 491.38241618461325 388.9774653282649Q494.4323774909949 392.49218264323804 496.6980630328784 395.7454747033785L496.6980630328784 395.7454747033785Q497.71471680167224 397.40116798398566 497.71471680167224 400.24779853660857L497.71471680167224 400.24779853660857L497.71471680167224 490.81712571087525Q497.71471680167224 497.6722768375997 500.1546858467776 500.63509639237043Q502.6237021424199 503.5979159471412 509.3626642669965 503.5979159471412L509.3626642669965 503.5979159471412L540.7046475963851 503.48172694499334Q543.1446166414904 503.48172694499334 544.364601164043 504.3240972105654L544.364601164043 504.3240972105654Q547.0369482134442 506.1540739943944 549.8835787660671 508.7102320416476Q552.7592565692269 511.26639008890083 555.9254068777564 514.8392019049479L555.9254068777564 514.8392019049479Q556.9420606465503 516.1463281791114 556.9420606465503 516.9596511941465L556.9420606465503 516.9596511941465Q556.9420606465503 517.8891632113296 555.9254068777564 519.0220059822713L555.9254068777564 519.0220059822713Q552.7592565692269 522.5948177983183 549.8835787660671 525.1509758455716Q547.0369482134442 527.7071338928248 544.364601164043 529.5371106766538L544.364601164043 529.5371106766538Q542.9412858877317 530.3504336916889 540.7046475963851 530.3504336916889L540.7046475963851 530.3504336916889Z " fill="#99f443" transform="matrix(0.4691109454257675,0,0,0.46911094542576737,0,86.39014689810033)"/><path d="M734.9836191737949 527.5539058516817L706.2460499418189 527.5539058516817Q696.6047153153359 527.5539058516817 691.5976133546208 525.1302554345273Q686.5905113939059 522.6799714963049 684.8593325245097 517.166832635305Q683.1281536551136 511.62706025323735 683.1281536551136 502.4651290059716L683.1281536551136 502.4651290059716L683.1281536551136 418.38310299545446Q683.1281536551136 409.0081035796477 684.8593325245097 403.548231760783Q686.5905113939059 398.0617264208506 691.5976133546208 395.6647095247636Q696.6047153153359 393.2943261497443 706.2460499418189 393.2943261497443L706.2460499418189 393.2943261497443L734.9836191737949 393.2943261497443Q755.1185611009253 393.2943261497443 770.2464010673409 399.2868683899617Q785.3742410337563 405.2794106301791 793.7904336911283 419.55497792243034Q802.2066263485003 433.8305452146816 802.2066263485003 458.73288741291833L802.2066263485003 458.73288741291833Q802.2066263485003 483.6352296111552 793.7904336911283 498.7630695775706Q785.3742410337563 513.8909095439861 770.2464010673409 520.7090909373002Q755.1185611009253 527.5539058516817 734.9836191737949 527.5539058516817L734.9836191737949 527.5539058516817ZM728.1654377804808 417.9036996162371L724.0372420149977 417.9036996162371Q717.8582651273068 417.9036996162371 715.594415836558 420.54041820193277Q713.3572000668769 423.1505032665608 713.3572000668769 429.51591480172505L713.3572000668769 429.51591480172505L713.3572000668769 491.3056836786334Q713.3572000668769 497.5911946505948 715.594415836558 500.3078137994933Q717.8582651273068 503.0244329483919 724.0372420149977 503.0244329483919L724.0372420149977 503.0244329483919L728.3518724279543 503.0244329483919Q748.3802802708142 503.0244329483919 759.3799244717466 493.19666367443534Q770.3795686726789 483.3688944004788 770.3795686726789 459.1057567078652L770.3795686726789 459.1057567078652Q770.3795686726789 442.9125758987444 765.3724667119641 433.96371282001974Q760.365364751249 425.0148497412951 750.9104647722393 421.47259143929995Q741.4555647932297 417.9036996162371 728.1654377804808 417.9036996162371L728.1654377804808 417.9036996162371ZM818.985744621109 400.21904162732886L818.985744621109 400.21904162732886Q818.985744621109 398.99389965821774 819.7314832110028 398.0617264208506Q820.4772218008965 397.12955318348344 821.7023637700077 395.6114424826284L821.7023637700077 395.6114424826284Q824.3124488346357 392.6284881230535 827.7748065734279 389.2992979895994Q831.2371643122202 385.97010785614526 834.806056135283 382.88061941229984L834.806056135283 382.88061941229984Q837.0432719049642 381.1228070218361 838.1618797898047 381.1228070218361L838.1618797898047 381.1228070218361Q839.307121195713 381.1228070218361 841.6242375285971 382.88061941229984L841.6242375285971 382.88061941229984Q849.2147910328724 389.4324655949375 854.5681287674666 395.6114424826284L854.5681287674666 395.6114424826284Q855.7666372155102 397.0230190992129 856.565642847539 398.0084593787153Q857.3646484795681 398.99389965821774 857.3646484795681 400.21904162732886L857.3646484795681 400.21904162732886Q857.3646484795681 401.41755007537233 856.565642847539 402.3763568338071Q855.7666372155102 403.3085300711743 854.461594683196 404.90654133523225L854.461594683196 404.90654133523225Q851.931410181771 407.8095951316042 848.5755865272492 411.1121517439907Q845.1931293516599 414.4413418774448 841.6242375285971 417.45092975808734L841.6242375285971 417.45092975808734Q840.319194996283 418.5695376429279 839.5734564063894 418.8891398957395Q838.8277178164956 419.2087421485511 838.1618797898047 419.2087421485511L838.1618797898047 419.2087421485511Q837.5226752841816 419.2087421485511 836.8035702153554 418.8891398957395Q836.111098667597 418.5695376429279 834.6196214878096 417.45092975808734L834.6196214878096 417.45092975808734Q830.8642950172733 414.4413418774448 827.5883719259544 411.1121517439907Q824.3124488346357 407.8095951316042 821.7023637700077 404.6934731666912L821.7023637700077 404.6934731666912Q820.4772218008965 403.20199598690374 819.7314832110028 402.32308979167186Q818.985744621109 401.41755007537233 818.985744621109 400.21904162732886ZM852.8635834191382 436.6270649267831L852.8635834191382 522.6000709331021Q852.8635834191382 525.3965906452036 851.6917084921623 526.4885650089765Q850.5198335651864 527.5539058516817 847.723313853085 527.5539058516817L847.723313853085 527.5539058516817L828.4406446001187 527.5539058516817Q825.6174913669497 527.5539058516817 824.4456164399738 526.4885650089765Q823.273741512998 525.3965906452036 823.273741512998 522.6000709331021L823.273741512998 522.6000709331021L823.273741512998 436.6270649267831Q823.273741512998 433.8305452146816 824.4456164399738 432.7385708509087Q825.6174913669497 431.67323000820335 828.4406446001187 431.67323000820335L828.4406446001187 431.67323000820335L847.723313853085 431.67323000820335Q850.5198335651864 431.67323000820335 851.6917084921623 432.7385708509087Q852.8635834191382 433.8305452146816 852.8635834191382 436.6270649267831L852.8635834191382 436.6270649267831ZM898.5667055711962 518.8447444625658L898.5667055711962 518.8447444625658Q893.426436005143 510.69488701587017 888.4193340444281 500.0681121098846Q883.3855985626454 489.44133720389914 879.3106698392976 478.54822708723725Q875.2623746370174 467.62848344950777 872.8120906987951 458.5997198075802Q870.3884402816406 449.544322644585 870.3884402816406 444.6970218102758L870.3884402816406 444.6970218102758Q870.3884402816406 442.8060418144739 871.4005140822106 441.6075333664304L871.4005140822106 441.6075333664304Q875.7151444951671 436.2541956318362 883.6785672943894 430.4480880390922L883.6785672943894 430.4480880390922Q885.0901439109739 429.51591480172505 886.2087517958146 429.51591480172505L886.2087517958146 429.51591480172505Q887.4338937649256 429.51591480172505 888.7389362972397 430.4480880390922L888.7389362972397 430.4480880390922Q893.0535667101963 433.53757648293765 895.9832540276358 436.2541956318362Q898.9395748661431 438.97081478073477 900.9903559883508 441.6075333664304L900.9903559883508 441.6075333664304Q902.0290633099885 442.8060418144739 902.0290633099885 445.06989110522267L902.0290633099885 445.06989110522267L902.0290633099885 444.5904877260053Q902.0290633099885 450.68956405049323 904.2396455586021 460.57060036658504Q906.4235942861479 470.4250031616092 910.258821319887 481.398013841474Q914.1206818746938 492.3443910002711 919.1544173564764 501.53295576860444L919.1544173564764 501.53295576860444L919.6338207356939 501.53295576860444Q923.8419170643798 494.58160676995226 927.1178401556987 486.5382834075271Q930.3937632470175 478.494960045102 932.6576125377663 470.4250031616092Q934.8948283074475 462.3816797991841 936.0667032344234 455.64339896907296Q937.2385781613992 448.9051181389618 937.2385781613992 444.6970218102758L937.2385781613992 444.6970218102758L937.2385781613992 445.06989110522267Q937.2385781613992 442.8060418144739 938.1707513987664 441.6075333664304L938.1707513987664 441.6075333664304Q940.3280666052447 438.97081478073477 943.2311204016166 436.2541956318362Q946.1341741979886 433.53757648293765 950.2623699634717 430.4480880390922L950.2623699634717 430.4480880390922Q951.5674124957857 429.51591480172505 952.6860203806264 429.51591480172505L952.6860203806264 429.51591480172505Q953.9910629129404 429.51591480172505 955.1096707977808 430.4480880390922L955.1096707977808 430.4480880390922Q959.3444006475345 433.53757648293765 962.2474544439065 436.2541956318362Q965.1505082402784 438.97081478073477 967.2012893624862 441.6075333664304L967.2012893624862 441.6075333664304Q968.1334625998534 442.8060418144739 968.1334625998534 444.8834564577493L968.1334625998534 444.8834564577493Q968.0535620366504 449.9438254605995 965.5233775352253 459.05248966573Q962.9931930338003 468.18778739192805 958.731829662979 479.10753102965754Q954.4704662921577 490.00064114631937 949.223662641834 500.547515489102Q943.9768589915103 511.067756310817 938.5436206937133 518.8447444625658L938.5436206937133 518.8447444625658Q935.2676976023944 523.6121447336722 932.6576125377663 525.583025292677Q930.0208939520707 527.5539058516817 923.5755818537035 527.5539058516817L923.5755818537035 527.5539058516817L913.6412784954764 527.5539058516817Q906.9029976653653 527.5539058516817 904.3195461218049 525.6895593769475Q901.7360945782445 523.7985793811456 898.5667055711962 518.8447444625658ZM870.3884402816406 445.06989110522267L870.3884402816406 444.5904877260053L870.3884402816406 444.6970218102758Q870.3884402816406 444.8834564577493 870.3884402816406 445.06989110522267L870.3884402816406 445.06989110522267ZM968.1334625998534 444.6970218102758L968.1334625998534 444.6970218102758L968.1334625998534 445.06989110522267L968.1334625998534 444.8834564577493Q968.1334625998534 444.7769223734787 968.1334625998534 444.6970218102758ZM981.1572544019259 400.21904162732886L981.1572544019259 400.21904162732886Q981.1572544019259 398.99389965821774 981.9029929918196 398.0617264208506Q982.6487315817134 397.12955318348344 983.8738735508244 395.6114424826284L983.8738735508244 395.6114424826284Q986.4839586154524 392.6284881230535 989.9463163542448 389.2992979895994Q993.408674093037 385.97010785614526 996.9775659160998 382.88061941229984L996.9775659160998 382.88061941229984Q999.214781685781 381.1228070218361 1000.3333895706216 381.1228070218361L1000.3333895706216 381.1228070218361Q1001.4786309765298 381.1228070218361 1003.8223808304815 382.88061941229984L1003.8223808304815 382.88061941229984Q1011.3863008136892 389.4324655949375 1016.7396385482834 395.6114424826284L1016.7396385482834 395.6114424826284Q1017.9381469963269 397.0230190992129 1018.737152628356 398.0084593787153Q1019.5361582603848 398.99389965821774 1019.5361582603848 400.21904162732886L1019.5361582603848 400.21904162732886Q1019.5361582603848 401.41755007537233 1018.737152628356 402.3763568338071Q1017.9381469963269 403.3085300711743 1016.6331044640128 404.90654133523225L1016.6331044640128 404.90654133523225Q1014.1029199625877 407.8095951316042 1010.747096308066 411.1121517439907Q1007.3646391324767 414.4413418774448 1003.8223808304815 417.45092975808734L1003.8223808304815 417.45092975808734Q1002.4907047770998 418.5695376429279 1001.7449661872062 418.8891398957395Q1000.9992275973125 419.2087421485511 1000.3333895706216 419.2087421485511L1000.3333895706216 419.2087421485511Q999.6941850649984 419.2087421485511 998.9750799961723 418.8891398957395Q998.2826084484138 418.5695376429279 996.7911312686265 417.45092975808734L996.7911312686265 417.45092975808734Q993.0358047980901 414.4413418774448 989.7598817067712 411.1121517439907Q986.4839586154524 407.8095951316042 983.8738735508244 404.6934731666912L983.8738735508244 404.6934731666912Q982.6487315817134 403.20199598690374 981.9029929918196 402.32308979167186Q981.1572544019259 401.41755007537233 981.1572544019259 400.21904162732886ZM1015.0350931999549 436.6270649267831L1015.0350931999549 522.6000709331021Q1015.0350931999549 525.3965906452036 1013.8632182729791 526.4885650089765Q1012.7179768670709 527.5539058516817 1009.8948236339018 527.5539058516817L1009.8948236339018 527.5539058516817L990.6121543809356 527.5539058516817Q987.7890011477664 527.5539058516817 986.6171262207906 526.4885650089765Q985.4452512938149 525.3965906452036 985.4452512938149 522.6000709331021L985.4452512938149 522.6000709331021L985.4452512938149 436.6270649267831Q985.4452512938149 433.8305452146816 986.6171262207906 432.7385708509087Q987.7890011477664 431.67323000820335 990.6121543809356 431.67323000820335L990.6121543809356 431.67323000820335L1009.8948236339018 431.67323000820335Q1012.7179768670709 431.67323000820335 1013.8632182729791 432.7385708509087Q1015.0350931999549 433.8305452146816 1015.0350931999549 436.6270649267831L1015.0350931999549 436.6270649267831ZM1133.2080261770423 467.9214521812517L1133.2080261770423 467.9214521812517L1133.2080261770423 522.6000709331021Q1133.2080261770423 525.3965906452036 1132.0361512500663 526.4885650089765Q1130.8642763230905 527.5539058516817 1128.067756610989 527.5539058516817L1128.067756610989 527.5539058516817L1108.7850873580228 527.5539058516817Q1105.9619341248535 527.5539058516817 1104.7900591978778 526.4885650089765Q1103.618184270902 525.3965906452036 1103.618184270902 522.6000709331021L1103.618184270902 522.6000709331021L1103.618184270902 472.7687530155609Q1103.618184270902 462.5681144466575 1099.3035538579454 457.8806147387541Q1095.0155569660565 453.21974855191837 1087.6114381092548 453.21974855191837L1087.6114381092548 453.21974855191837Q1080.2073192524526 453.21974855191837 1076.2389246133753 456.3891375589667Q1072.2438964532303 459.5851600870826 1070.11321476782 464.4324609213918L1070.11321476782 464.4324609213918L1070.11321476782 522.6000709331021Q1070.11321476782 525.3965906452036 1068.941339840844 526.4885650089765Q1067.769464913868 527.5539058516817 1064.9463116806992 527.5539058516817L1064.9463116806992 527.5539058516817L1045.6636424277328 527.5539058516817Q1042.8671227156312 527.5539058516817 1041.6952477886555 526.4885650089765Q1040.5233728616797 525.3965906452036 1040.5233728616797 522.6000709331021L1040.5233728616797 522.6000709331021L1040.5233728616797 444.13771786785554Q1040.5233728616797 441.8738685771067 1041.4555460990468 440.6487266079956L1041.4555460990468 440.6487266079956Q1043.4264266580517 438.0386415433676 1046.1696793280178 435.322022394469Q1048.9395655190517 432.60540324557047 1052.9612272002641 429.51591480172505L1052.9612272002641 429.51591480172505Q1054.1863691693752 428.5837415643579 1055.304977054216 428.5837415643579L1055.304977054216 428.5837415643579Q1056.3436843758536 428.5837415643579 1057.6487269081676 429.51591480172505L1057.6487269081676 429.51591480172505Q1061.5904880261774 432.60540324557047 1064.3870077382787 435.42855647873955Q1067.2101609714477 438.22507619084104 1069.3408426568585 441.23466407148356L1069.3408426568585 441.23466407148356L1069.8202460360758 441.23466407148356Q1071.4182573001337 439.15724942820816 1074.5876463071822 436.413996758242Q1077.7836688352982 433.64411056720814 1083.5365093859068 431.4867953607299Q1089.2893499365155 429.3294801542516 1098.2914800573753 429.3294801542516L1098.2914800573753 429.3294801542516Q1107.0805420096945 429.3294801542516 1115.0439648089166 432.89837197731447Q1123.0073876081387 436.44063027930963 1128.1210236531242 444.8834564577493Q1133.2080261770423 453.29964911512127 1133.2080261770423 467.9214521812517ZM1205.491402354598 529.8976557056335L1205.491402354598 529.8976557056335Q1189.6710908404239 529.8976557056335 1177.978975091733 524.784019660648Q1166.2602258219747 519.6970171367301 1159.8149137236076 508.91044110433876Q1153.3429681041728 498.1504985930151 1153.3429681041728 481.10504510973L1153.3429681041728 481.10504510973Q1153.3429681041728 455.5368648848024 1166.446660469448 442.43317251952703Q1179.5503528347235 429.3294801542516 1201.2833060259118 429.3294801542516L1201.2833060259118 429.3294801542516Q1215.425705712825 429.3294801542516 1225.200207944646 434.3898491571019Q1235.001343697535 439.45021815995216 1240.0883462214529 448.34581419654154Q1245.2019822664386 457.2414102331309 1245.2019822664386 468.66719077114544L1245.2019822664386 468.66719077114544Q1245.2019822664386 479.80000257741597 1239.4757752368976 484.1945335535754Q1233.776201728424 488.58906452973486 1222.829824569627 488.58906452973486L1222.829824569627 488.58906452973486L1182.6398412785688 488.58906452973486Q1183.3855798684626 498.2570326772856 1189.7243578825592 503.2907681590682Q1196.0365023755883 508.3511371619185 1206.9029789711824 508.3511371619185L1206.9029789711824 508.3511371619185Q1215.5056062760277 508.3511371619185 1220.6991428842161 505.79431913942574Q1225.9193130134722 503.21086759586535 1227.97009413568 501.7193904160779L1227.97009413568 501.7193904160779Q1229.7545400472115 500.3877143626962 1231.9917558168927 500.49424844696676L1231.9917558168927 500.49424844696676Q1233.776201728424 500.49424844696676 1237.1053918618782 501.1867199947252Q1240.4345819953323 501.90582506355133 1243.7105050866512 503.77017153828564L1243.7105050866512 503.77017153828564Q1246.027621419535 504.99531350739676 1246.027621419535 507.152628713875L1246.027621419535 507.152628713875Q1246.027621419535 508.3511371619185 1245.5748515613855 510.61498645266727L1245.5748515613855 510.61498645266727Q1245.2818828296413 511.9200289849813 1244.6426783240183 514.3969464442712Q1243.9768402973275 516.873863903561 1242.9381329756898 519.0311791100393L1242.9381329756898 519.0311791100393Q1242.3788290332695 520.069886431677 1241.1803205852261 521.0020596690441L1241.1803205852261 521.0020596690441Q1239.289340589424 522.3071022013581 1235.1345113028733 524.4644174078364Q1230.953048495255 526.6217326143146 1223.761997806994 528.2463773994402Q1216.5443135976657 529.8976557056335 1205.491402354598 529.8976557056335ZM1182.4534066310955 469.4129293610392L1182.4534066310955 469.4129293610392L1212.9754217746026 469.4129293610392Q1217.7694555667767 469.4129293610392 1217.7694555667767 465.01839838487973L1217.7694555667767 465.01839838487973Q1217.7694555667767 458.3600181179715 1213.5879927591584 453.8056860154063Q1209.4331634726077 449.27798743390866 1201.0968713784387 449.27798743390866L1201.0968713784387 449.27798743390866Q1192.0148406943756 449.27798743390866 1187.7534773235543 455.0840950266527Q1183.4921139527332 460.89020261939663 1182.4534066310955 469.4129293610392ZM1297.6433852486077 520.5226562898267L1278.0677472638977 529.5247864106866Q1276.0968667048928 530.3504255637832 1275.2445940307284 530.3504255637832L1275.2445940307284 530.3504255637832Q1274.418954877632 530.3504255637832 1273.4867816402648 529.71122105816L1273.4867816402648 529.71122105816Q1271.3294664337864 528.2197438783726 1268.5595802427526 522.3603692434933Q1265.789694051719 516.5009946086142 1265.789694051719 504.3294754807059L1265.789694051719 504.3294754807059L1265.789694051719 395.9044112143723Q1265.789694051719 393.6671954446912 1266.7218672890858 392.44205347558005L1266.7218672890858 392.44205347558005Q1270.6636284070955 387.3017839095269 1278.2541819113712 381.3092416693095L1278.2541819113712 381.3092416693095Q1279.559224443685 380.3504349108747 1280.5979317653228 380.3504349108747L1280.5979317653228 380.3504349108747Q1281.7964402133662 380.3504349108747 1282.9416816192745 381.3092416693095L1282.9416816192745 381.3092416693095Q1286.963343300487 384.3987301131549 1289.7065959704532 387.1153492620535Q1292.476482161487 389.831968410952 1294.4473627204918 392.44205347558005L1294.4473627204918 392.44205347558005Q1295.379535957859 393.6671954446912 1295.379535957859 395.9044112143723L1295.379535957859 395.9044112143723L1295.379535957859 498.62990197223246Q1295.379535957859 504.8088788599233 1296.4182432794967 509.15014279394745Q1297.4569506011344 513.5180402490392 1298.8418936966514 516.1281253136673L1298.8418936966514 516.1281253136673Q1300.439904960709 519.2176137575127 1297.6433852486077 520.5226562898267L1297.6433852486077 520.5226562898267ZM1367.0237076297917 529.8976557056335L1367.0237076297917 529.8976557056335Q1343.4264079638688 529.8976557056335 1329.6568775719024 517.3532672827785Q1315.8873471799361 504.8088788599233 1315.8873471799361 479.9864372248894L1315.8873471799361 479.9864372248894Q1315.8873471799361 454.52479108423233 1330.1629144721876 441.927135619242Q1344.4384817644386 429.3294801542516 1368.3287501621055 429.3294801542516L1368.3287501621055 429.3294801542516Q1391.366745885608 429.3294801542516 1405.216176840777 441.74070097176855Q1419.065607795946 454.1519217892855 1419.065607795946 478.30852539762856L1419.065607795946 478.30852539762856Q1419.065607795946 503.47720280654164 1405.216176840777 516.6874292560876Q1391.366745885608 529.8976557056335 1367.0237076297917 529.8976557056335ZM1367.9558808671586 507.2325292770779L1367.9558808671586 507.2325292770779Q1378.2630535203325 507.2325292770779 1383.4832236495886 500.81385069977836Q1388.7300272999123 494.3951721224788 1388.7300272999123 478.86782934004884L1388.7300272999123 478.86782934004884Q1388.7300272999123 464.05959162644496 1383.456590128521 458.0404158651599Q1378.156519436062 451.99460658280725 1367.7694462196853 451.99460658280725L1367.7694462196853 451.99460658280725Q1357.7552422982553 451.99460658280725 1351.975768226579 458.4931857233097Q1346.2229276759701 465.01839838487973 1346.2229276759701 479.6135679299426L1346.2229276759701 479.6135679299426Q1346.2229276759701 494.87457550169626 1351.7094330159027 501.05355238938705Q1357.1693048347674 507.2325292770779 1367.9558808671586 507.2325292770779ZM1464.0229913581106 529.8976557056335L1464.0229913581106 529.8976557056335Q1450.2534609661443 529.8976557056335 1442.1568705615841 522.17393459602Q1434.0602801570235 514.4502134864065 1434.0602801570235 500.86711774191366L1434.0602801570235 500.86711774191366Q1434.0602801570235 493.8358681800586 1436.6170981795162 487.8166924187735Q1439.2005497230766 481.7708831364208 1445.6192283003763 477.13665047065274Q1452.0379068776756 472.50241780488454 1463.5968550210284 469.67926457171546Q1475.155803164381 466.88274485961404 1493.1334298850334 466.40334148039665L1493.1334298850334 466.40334148039665Q1493.1334298850334 457.8806147387541 1488.872066514212 454.1519217892855Q1484.6107031433908 450.3965953187493 1476.0879764017482 450.3965953187493L1476.0879764017482 450.3965953187493Q1468.41752233427 450.3965953187493 1463.5435879788934 453.0333139044449Q1458.6696536235163 455.64339896907296 1457.4711451754729 456.5755722064401L1457.4711451754729 456.5755722064401Q1456.1661026431589 457.6941800912807 1454.275122647357 457.42784488060437L1454.275122647357 457.42784488060437Q1451.7449381459319 457.0549755856575 1448.895151391695 456.12280234829035Q1446.0453646374583 455.1639955898556 1442.7694415461397 453.9654871418121L1442.7694415461397 453.9654871418121Q1442.2900381669222 453.77905249433866 1441.7307342245017 453.3529161572565Q1441.1714302820815 452.9267798201744 1441.0648961978109 452.07450714601015L1441.0648961978109 452.07450714601015Q1441.0648961978109 451.62173728786036 1441.1714302820815 450.9026322190343Q1441.277964366352 450.21016067127584 1441.650833661299 448.34581419654154L1441.650833661299 448.34581419654154Q1442.0237029562459 446.4548342007396 1442.7694415461397 443.7115815307734Q1443.5151801360332 440.94169533973957 1444.181018162724 439.45021815995216L1444.181018162724 439.45021815995216Q1445.0066573158206 437.85220689589414 1446.9775378748254 436.44063027930963L1446.9775378748254 436.44063027930963Q1448.5755491388834 435.1355877469956 1456.6188725013087 432.23253395062363Q1464.6621958637338 429.3294801542516 1479.9232034354873 429.3294801542516L1479.9232034354873 429.3294801542516Q1521.9775332012796 429.3294801542516 1521.9775332012796 470.2385685141358L1521.9775332012796 470.2385685141358L1521.9775332012796 523.2392754387253Q1521.9775332012796 525.0237213502567 1520.9920929217774 526.302130361503Q1520.0066526422752 527.5539058516817 1517.6629027883232 527.5539058516817L1517.6629027883232 527.5539058516817L1503.6270371856808 527.5539058516817Q1502.1355600058932 527.5539058516817 1500.9636850789175 527.1277695145997Q1499.7918101519417 526.7016331775176 1498.753102830304 525.503124729474L1498.753102830304 525.503124729474L1492.9469952375598 517.9924717884016L1492.3077907319366 517.9924717884016Q1487.9931603189802 524.277982760363 1480.7222090675164 527.0745024724645Q1473.4778913371201 529.8976557056335 1464.0229913581106 529.8976557056335ZM1474.3301640112845 508.164702514445L1474.3301640112845 508.164702514445Q1482.93279131613 508.164702514445 1487.3273222922894 503.77017153828564Q1491.721853268449 499.3756405621262 1492.9469952375598 494.68814085422275L1492.9469952375598 494.68814085422275L1492.9469952375598 484.30106763784596Q1479.9232034354873 484.30106763784596 1473.424624294985 486.2985817179184Q1466.9260451544826 488.3227293190585 1464.7687299480044 491.54538536824214Q1462.611414741526 494.79467493849336 1462.611414741526 498.52336788796197L1462.611414741526 498.52336788796197Q1462.611414741526 503.95660618575903 1465.9938719171155 506.060654350102Q1469.3496955716373 508.164702514445 1474.3301640112845 508.164702514445ZM1581.15721701356 529.8976557056335L1581.15721701356 529.8976557056335Q1568.692729153908 529.8976557056335 1559.9569342437244 523.771945860078Q1551.194505812473 517.6196024934547 1546.640173709908 506.80639293999576Q1542.11247512841 495.9931833865368 1542.11247512841 481.8507836996238L1542.11247512841 481.8507836996238Q1542.11247512841 463.2339524733483 1548.7175883531831 451.67500432999566Q1555.3227015779562 440.08942266557534 1567.3344195794587 434.6561843677782Q1579.3727711020288 429.24957959104876 1595.7523865586231 429.24957959104876L1595.7523865586231 429.24957959104876Q1601.3720595038935 429.24957959104876 1605.0741189322946 429.80888353346904Q1608.7761783606957 430.36818747588933 1610.3741896247534 430.82095733403906L1610.3741896247534 430.82095733403906L1610.3741896247534 395.9044112143723Q1610.3741896247534 393.6671954446912 1611.3063628621207 392.44205347558005L1611.3063628621207 392.44205347558005Q1615.2481239801305 387.3017839095269 1622.812043963338 381.3092416693095L1622.812043963338 381.3092416693095Q1624.1437200167197 380.3504349108747 1625.1557938172896 380.3504349108747L1625.1557938172896 380.3504349108747Q1626.3809357864009 380.3504349108747 1627.4995436712413 381.3092416693095L1627.4995436712413 381.3092416693095Q1631.521205352454 384.3987301131549 1634.2910915434877 387.1153492620535Q1637.0609777345217 389.831968410952 1639.0318582935265 392.44205347558005L1639.0318582935265 392.44205347558005Q1639.9640315308936 393.6671954446912 1639.9640315308936 395.9044112143723L1639.9640315308936 395.9044112143723L1639.9640315308936 523.2392754387253Q1639.9640315308936 525.0237213502567 1638.7388895617826 526.302130361503Q1637.5137475926713 527.5539058516817 1635.649401117937 527.5539058516817L1635.649401117937 527.5539058516817L1621.6934360784971 527.5539058516817Q1620.20195889871 527.5539058516817 1619.030083971734 527.1277695145997Q1617.8582090447583 526.7016331775176 1616.8195017231205 525.503124729474L1616.8195017231205 525.503124729474L1611.0133941303766 517.9924717884016L1610.3741896247534 517.9924717884016Q1609.1490476556423 519.8834517842035 1606.0062921696617 522.7332385384402Q1602.8635366836809 525.583025292677 1596.924261485599 527.7403404991553Q1590.9849862875167 529.8976557056335 1581.15721701356 529.8976557056335ZM1590.239247697623 505.9274867447639L1590.239247697623 505.9274867447639Q1598.6554403549949 505.9274867447639 1603.4761076682366 502.73146421664796Q1608.296774981478 499.5620752095996 1610.3741896247534 494.68814085422275L1610.3741896247534 494.68814085422275L1610.3741896247534 455.4569643215995Q1608.8560789238982 454.52479108423233 1605.3937211851062 453.21974855191837Q1601.9313634463138 451.8880724985367 1595.6724859954202 451.8880724985367L1595.6724859954202 451.8880724985367Q1584.060270809932 451.8880724985367 1578.2541632171883 459.47862600281206Q1572.4480556244444 467.0691795070875 1572.4480556244444 479.9065366616865L1572.4480556244444 479.9065366616865Q1572.4480556244444 493.19666367443534 1577.321989979821 499.5620752095996Q1582.195924335198 505.9274867447639 1590.239247697623 505.9274867447639ZM1712.2474077084494 529.8976557056335L1712.2474077084494 529.8976557056335Q1696.4270961942752 529.8976557056335 1684.708346924517 524.784019660648Q1673.016231175826 519.6970171367301 1666.5442855563913 508.91044110433876Q1660.098973458024 498.1504985930151 1660.098973458024 481.10504510973L1660.098973458024 481.10504510973Q1660.098973458024 455.5368648848024 1673.2026658232994 442.43317251952703Q1686.306358188575 429.3294801542516 1708.0393113797631 429.3294801542516L1708.0393113797631 429.3294801542516Q1722.1550775456085 429.3294801542516 1731.9562132984975 434.3898491571019Q1741.7307155303192 439.45021815995216 1746.8443515753047 448.34581419654154Q1751.9313540992225 457.2414102331309 1751.9313540992225 468.66719077114544L1751.9313540992225 468.66719077114544Q1751.9313540992225 479.80000257741597 1746.2317805907492 484.1945335535754Q1740.5055735612077 488.58906452973486 1729.5591964024106 488.58906452973486L1729.5591964024106 488.58906452973486L1689.3958466324202 488.58906452973486Q1690.141585222314 498.2570326772856 1696.453729715343 503.2907681590682Q1702.7925077294394 508.3511371619185 1713.6323508039663 508.3511371619185L1713.6323508039663 508.3511371619185Q1722.2616116298796 508.3511371619185 1727.4551482380675 505.79431913942574Q1732.6486848462564 503.21086759586535 1734.6994659684638 501.7193904160779L1734.6994659684638 501.7193904160779Q1736.483911879995 500.3877143626962 1738.747761170744 500.49424844696676L1738.747761170744 500.49424844696676Q1740.5055735612077 500.49424844696676 1743.834763694662 501.1867199947252Q1747.163953828116 501.90582506355133 1750.439876919435 503.77017153828564L1750.439876919435 503.77017153828564Q1752.7836267733865 504.99531350739676 1752.7836267733865 507.152628713875L1752.7836267733865 507.152628713875Q1752.7836267733865 508.3511371619185 1752.3042233941692 510.61498645266727L1752.3042233941692 510.61498645266727Q1752.0378881834931 511.9200289849813 1751.3720501568023 514.3969464442712Q1750.732845651179 516.873863903561 1749.6941383295411 519.0311791100393L1749.6941383295411 519.0311791100393Q1749.134834387121 520.069886431677 1747.9096924180099 521.0020596690441L1747.9096924180099 521.0020596690441Q1746.0453459432756 522.3071022013581 1741.863883135657 524.4644174078364Q1737.709053849106 526.6217326143146 1730.491369639778 528.2463773994402Q1723.300318951517 529.8976557056335 1712.2474077084494 529.8976557056335ZM1689.2094119849469 469.4129293610392L1689.2094119849469 469.4129293610392L1719.731427128454 469.4129293610392Q1724.4988273995605 469.4129293610392 1724.4988273995605 465.01839838487973L1724.4988273995605 465.01839838487973Q1724.4988273995605 458.3600181179715 1720.3439981130095 453.8056860154063Q1716.1625353053914 449.27798743390866 1707.85287673229 449.27798743390866L1707.85287673229 449.27798743390866Q1698.7442125271593 449.27798743390866 1694.509482677406 455.0840950266527Q1690.2481193065846 460.89020261939663 1689.2094119849469 469.4129293610392ZM1806.423538203599 529.8976557056335L1806.423538203599 529.8976557056335Q1793.9856838650148 529.8976557056335 1785.2232554337634 523.771945860078Q1776.4608270025124 517.6196024934547 1771.9331284210148 506.80639293999576Q1767.3787963184495 495.9931833865368 1767.3787963184495 481.8507836996238L1767.3787963184495 481.8507836996238Q1767.3787963184495 463.2339524733483 1773.9839095432221 451.67500432999566Q1780.5890227679952 440.08942266557534 1792.6273742905655 434.6561843677782Q1804.6657258131354 429.24957959104876 1821.0453412697298 429.24957959104876L1821.0453412697298 429.24957959104876Q1826.6650142150002 429.24957959104876 1830.3670736434015 429.80888353346904Q1834.0691330718023 430.36818747588933 1835.6405108147928 430.82095733403906L1835.6405108147928 430.82095733403906L1835.6405108147928 395.9044112143723Q1835.6405108147928 393.6671954446912 1836.5726840521597 392.44205347558005L1836.5726840521597 392.44205347558005Q1840.5144451701694 387.3017839095269 1848.1049986744447 381.3092416693095L1848.1049986744447 381.3092416693095Q1849.4100412067587 380.3504349108747 1850.4487485283967 380.3504349108747L1850.4487485283967 380.3504349108747Q1851.6738904975077 380.3504349108747 1852.7924983823482 381.3092416693095L1852.7924983823482 381.3092416693095Q1856.8141600635608 384.3987301131549 1859.5840462545948 387.1153492620535Q1862.3272989245606 389.831968410952 1864.2981794835655 392.44205347558005L1864.2981794835655 392.44205347558005Q1865.2303527209328 393.6671954446912 1865.2303527209328 395.9044112143723L1865.2303527209328 395.9044112143723L1865.2303527209328 523.2392754387253Q1865.2303527209328 525.0237213502567 1864.0318442728894 526.302130361503Q1862.8067023037784 527.5539058516817 1860.9423558290441 527.5539058516817L1860.9423558290441 527.5539058516817L1846.9863907896042 527.5539058516817Q1845.4682800887495 527.5539058516817 1844.323038682841 527.1277695145997Q1843.1511637558651 526.7016331775176 1842.1124564342276 525.503124729474L1842.1124564342276 525.503124729474L1836.3063488414837 517.9924717884016L1835.6405108147928 517.9924717884016Q1834.4420023667494 519.8834517842035 1831.2992468807684 522.7332385384402Q1828.1564913947877 525.583025292677 1822.2172161967055 527.7403404991553Q1816.2779409986233 529.8976557056335 1806.423538203599 529.8976557056335ZM1815.5055688876623 505.9274867447639L1815.5055688876623 505.9274867447639Q1823.948395066102 505.9274867447639 1828.7690623793433 502.73146421664796Q1833.589729692585 499.5620752095996 1835.6405108147928 494.68814085422275L1835.6405108147928 494.68814085422275L1835.6405108147928 455.4569643215995Q1834.1490336350053 454.52479108423233 1830.6866758962128 453.21974855191837Q1827.2243181574204 451.8880724985367 1820.9388071854592 451.8880724985367L1820.9388071854592 451.8880724985367Q1809.3265919999712 451.8880724985367 1803.5204844072273 459.47862600281206Q1797.741010335551 467.0691795070875 1797.741010335551 479.9065366616865L1797.741010335551 479.9065366616865Q1797.741010335551 493.19666367443534 1802.5883111698604 499.5620752095996Q1807.462245525237 505.9274867447639 1815.5055688876623 505.9274867447639Z " fill="#ec449b" transform="matrix(0.4691109454257675,0,0,0.46911094542576737,0,86.39014689810033)"/></g></svg>